<svg xmlns="http://www.w3.org/2000/svg" width="256" height="256" viewBox="0 0 256 256">
<!-- SVG created with Arrow, by QuiverAI (https://quiver.ai) -->
  <path d="m128 149.8c-0.85-13.64 5.21-19 17.63-30.68 6.38-6.11 8.23-12.13 7.02-16.5-1.67-6.4-6.69-8.41-11.59-8.21-6.86 0.29-12.95 7.38-13.74 13.93-1.12-7.33-7.05-15.46-15.05-14.52-6.54 0.79-9.54 5.97-9.6 11.38-0.07 6.89 4.24 12.54 13.14 20.97 7.96 7.69 11.34 15.54 12.19 23.63zm65.3-123.8c-4.53-1.97-8.4-3.36-10.83-5.27 2.23 4.2 1.3 8.41-3.54 9.06-2.9 0.4-4.25-1.66-4.75-2.1 1.4 3.75 4.6 6.06 7.18 13.75 4.62 14.3 3.44 31.6-7.95 43.24-5.7 5.22-8.7 8.63-9.66 15.28 3.39-6.45 7.01-9.72 13.35-14.13 9.08-7 12.8-18.68 12.11-33.93 5.97 8.43 7.59 20.07 3.87 33.28 5.63-6.05 5.23-17.29 3.12-28.23 9.95 13.22 16.8 33.89 16.6 47.79 1.9-4.51 6.44-6.87 8.2-3.6-0.69-16.31-8.33-36.06-20.95-52.91 9.55 6.55 23.06 28.42 27.59 54.78 1.29-10.24 8.44-12.08 14.06-4-6.09-17.55-18.12-36.8-41.6-58.56 9.8 4.76 24.82 15.6 41.3 27.39-11.14-17.75-30.22-33.91-48.1-41.84zm-39.95-10.5c6.7-1.39 12.88-2.19 19.87 0.89 5.76 2.6 9 5.95 9.3 8.61 0.4 3.13-4.19 4.94-6.52 1.05-4.23-7-10.88-10.95-22.65-10.55z" fill="#000"/>
  <path d="m151.6 42.71c-3.52 4.2-3.72 11.89 1.27 17.5 4.28 4.86 4.93 6.77 4.23 13.61-0.75 6.21-5.03 10.46-9.02 12.93 7.51-1.44 11.69-9.03 12.59-15.67 3.52 8.95-3.67 17.63-8.56 19.24-4.03-2.21-8.31-3.01-12.94-1.81-6.29 1.76-10.17 7.47-11.88 12.28-1.71-4.81-5.58-10.52-11.87-12.28-4.64-1.2-8.92-0.4-12.95 1.81-4.89-1.61-12.08-10.29-8.56-19.24 0.9 6.64 5.08 14.23 12.59 15.67-3.98-2.47-8.26-6.72-9.01-12.93-0.7-6.84-0.05-8.75 4.23-13.61 4.99-5.61 4.79-13.3 2.26-17.5-0.4-0.7 0.1 0.2 0.1 0.2 1.91 5.31-1.11 11.31-7.45 17.17-11.58 10.04-9.25 23.84 0.4 33.68-3.24 4.36-3.09 10.27-1.89 15.98-7.4-11.13-13.79-21.58-29.11-22.13-11.88-0.45-17.82 11.14-13.94 19.72 2.93 6.9 9.07 11.61 6.24 18.8-0.35 1-0.65 1.49-0.65 1.49 2.93-1.49 4.13-4.51 4.53-7.58 2.78 6.89 6.66 13.59 16.11 13.89 7.55 0.1 9.66-6.95 8.66-11.21-1.81-6.99-8.1-9.86-12.84-10.31 1.91 1.2 4.13 2.74 5.23 4.85-2.33-2.01-6.26-3.85-9.39-3.65l-4.54 0.2c3.73-1.4 6.31-3.66 7.06-7.51-2.33 2.61-5.26 3.51-8.68 2.61-4.74-1.3-6.34-5.81-5.34-9.42 1.5-5.11 7.19-6.36 13.18-4.86 14.06 3.81 18.75 18.41 29.25 28.45 5.19 4.86 17.46 10.82 23.8 26.73l1.11 8.33c-1.45-14.3-11.8-25.53-25.71-34.06-1.35-0.8-2.4-1.05-2.4-1.05 7.04 7.19 15.6 17.83 15.15 27.87-0.2 4.41-2.83 12.79 3.82 21.12 4.69 5.61 6.29 7.97 6.39 14.27 1.71-6.2-2.07-12.51-4.2-16.41-1.8-3.51-1.9-9.81 0-10.16 1.81-0.35 3.21 4.06 3.41 8.57 2.43-10.94 2.13-16.15-9.21-29.36 4.03 2.82 8.51 8.28 11.8 16.81 3.18-11.93 11.08-21.12 23.06-30.15 8.05-6.26 13.79-14.34 20.14-22.08 6.19-6.7 12.18-10.4 19.08-10.3 5.99 0.1 9.52 3.8 9.42 8.51-0.2 5.11-5.39 8.23-9.27 7.58-2.63-0.45-4.23-1.85-5.73-3.29 0.5 1.81 1.1 3.1 2.5 4.1-1.4 1.2-3.92 3.71-4.92 5.97 2.52-1.96 5.52-2.36 9.5-0.05-2.53 4.1-5.26 11.19-11.55 10.99-3.43-0.1-4.53-3.31-3.73-6.62 0.95-3.81 3.88-6.27 7.61-7.52-6.94-1.2-12.73 4.41-13.43 10.22-0.8 6.21 3.18 10.81 9.17 10.71 8.35-0.2 12.33-6.1 15.16-13.49 0.8 3.12 2 5.58 4.98 6.78-3.38-5.71 0.8-12.02 4.28-16.68 6.44-8.23 2.61-22.38-11.55-22.68-13.41-0.25-21.26 10.19-29.51 22.48 1-5.51 0.9-12.01-1.83-16.32 6.74-8.18 10.82-20.57 2.93-30.91-5.09-6.4-13.44-10.81-9.81-20.34l0.23 0.06z" fill="#000"/>
  <path d="m157.7 139.1c12.22-0.8 27.94 9.74 28.99 23.34-3.23-4.31-5.29-6.16-8.62-7.36 3.03 10.24-0.35 21.87-17.08 31.71-10.14 5.21-21.92 9.27-28.36 15.57 5.49 7.54 9.42 15.67 8.37 24.3-1.4 10.24-8.1 14.45-14.59 13.5-8.55-1.3-11.28-10.03-9.88-18.21 1.15-6.9 4.58-11.86 8.91-16.96l3.03 3.7c-4.69 5.61-7.37 11.52-7.27 17.08 0.1 5.86 4.09 9.27 7.51 8.32 4.39-1.25 6.72-6.26 6.32-10.97-1.91-14.95-17.83-34.05-37.11-39.66-10.25-2.41-19.75 0.45-22.03 7.79-2 7.29 4.14 13.99 13.94 14.49 9.34 0.55 17.9-2.81 27.64-8.47l3.73 3.36c-10.04 8.13-20.44 11.64-32.91 10.89-13.16-1.1-20.1-10.94-19.3-18.82 0.9-9.84 8.7-16.39 20.72-16.64 10.55-0.3 21.49 5.01 33.91 13.84 8.55-8.83 14.04-19.87 13.99-26.76-0.05-4.11-1.05-5.26-2-5.36-2.43-0.2-3.28 5.31-4.08 9.32-1.76-13.65 4.53-26.04 26.16-43.79-9.09 10.94-16.03 19.37-14.73 33.62 0.7 7.09 2.93 16.68-12.74 36.13l-2.23 2.51 2.63 3.11c6.54-6.5 14.99-10.76 26.08-15.17 13.02-5.81 20.46-13.34 19.46-28.44-3.13 7.83-5.13 9.99-8.96 12.4 5.19-10.74 1.76-23.18-9.5-28.37z" fill="#000"/>
  <path d="m250.1 110.9c-3.93-26.66-17.39-50.72-43.92-71.98 10.84 4.25 21.49 12.88 35.2 28.79-10.24-17.65-29.47-33.81-48.05-41.74-3.33-1.4-6.91-2.7-9.69-4.5 2.06 3.21 1.56 7.37-3.63 8.32-2.33 0.5-4.03-0.95-4.83-2 2 3.26 3.66 4.06 5.22 6.92 5.64 10.44 7.3 29.19-4.33 45.25-3.73 4.81-9.97 8.82-12.45 17.45 3.38-5.31 6.31-8.27 12.7-12.68 9.29-6.99 13.28-18.13 12.38-32.52 4.33 6.4 6.91 13.1 5.91 26.3 3.58-10.24 2.63-18.47-1.7-28.31 8.3 7.83 16.9 23.8 20.33 46.91 1.15 7.09-0.5 22.7-11.94 43.96 7.9-10.54 12.94-22.47 15.72-34.71 1.35-4.16 3.98-3.46 4.53 0.55 3.53 22.91-4.22 51.18-27.69 75.79 19.98-16.76 32.15-37.52 36.08-70.1 1.86-13.45 5.19-16.31 8.47-12.7 7.29 7.83 11.93 23.14 9.4 44.7 2.93-11.44 3.88-21.98 2.29-33.7z" fill="#000"/>
  <path d="m13.26 67.82c11.78-16.66 25.89-28.59 36.98-29.79-23.48 16.16-39.96 40.72-44.19 70.18-2.23 12.84-1.73 20.57 1.1 36.48-1.71-17.55 2.57-33.56 8.86-42.49 4.03-5.51 6.76-4.16 8.16 1.05 2.88 10.24 1.54 14.84 5.02 28.94 5.19 18.55 14.03 35.6 32.06 50.3-18.13-18.75-30.11-45.41-28.3-74.47 0.6-5.31 3.23-6.11 4.94-2.1 3.23 10.94 6.86 21.88 15.36 35.19-11.78-22.91-17.22-50.67 4.66-89.85-7.8 8.83-16.19 26.58-18 49.69-1.8-2.26-3.81-1.76-6.39-0.3 2.63-18.75 11.42-40.41 23.1-60.37-12.57 10.14-29.3 27.09-43.71 58.86 4.23-5.91 11.87-7.06 13.68 0.67 0.5-8.58 7.44-33.09 26.02-54.55 2.16-2.56 4.32-4.37 3.47-5.12-14.06 8.13-31.24 22.08-42.82 27.68z" fill="#000"/>
  <path d="m71.94 21.11c-3.93 2.41-11.83 5.22-16.82 7.93-14.46 7.54-31.99 22.03-41.73 38.58 11.77-14.75 21.92-24.44 36.58-29.9-13.51 9.29-27.92 22.45-36.66 44.21 9.94-18.9 22.81-34.26 40.68-45.9 3.93-2.56 7.61-5.12 11.14-6.82 3.93-1.86 6.66-2.91 7.71-4.16-1.75 3.8 0.88 5.66 3.31 5.61 2.63-0.05 3.93-1.75 5.03-3.36-2.47 3.61-5.7 6.32-7.76 11.83-5.59 16.06-5.39 33.71 6.83 45.95 5.84 4.31 9.07 6.77 11.08 12.83-0.5-7.83-6.59-10.9-10.57-15.71-9.75-13.4-10.35-24.89-4.66-43.14 1.51-4.51 5.03-7.77 5.93-11.37-2 2.1-4.33 2.8-6.29 2-3.58-1.44-3.48-5.65 0.05-9.61 2.53-2.86 6.96-5.37 11.24-5.77 5.09-0.6 9.02-0.5 14.71 1.05-9.7-0.75-16.59 2.96-21.78 9.71-2.88 3.65-7.21 2.2-7.36-1.15-0.09-1.75 0.81-2.9-0.66-2.81z" fill="#000"/>
</svg>